<?xml version="1.0" encoding="UTF-8" standalone="no"?>
<svg width="24px" height="24px" viewBox="0 0 24 24" version="1.1" xmlns="http://www.w3.org/2000/svg" xmlns:xlink="http://www.w3.org/1999/xlink">
    <!-- Generator: Sketch 3.8.3 (29802) - http://www.bohemiancoding.com/sketch -->
    <title>hashtag</title>
    <desc>Created with Sketch.</desc>
    <defs></defs>
    <g id="Page-1" stroke="none" stroke-width="1" fill="none" fill-rule="evenodd">
        <g id="Artboard-1" transform="translate(-1.000000, 0.000000)">
            <g id="hashtag">
                <circle id="Oval-2" fill="#ACCEFF" cx="13" cy="12" r="12"></circle>
                <g id="lines" stroke="#000000" fill="#000000">
                    <path d="M15.2631579,6.80679155 L10.7363158,6.80679155 L10.7363158,4.59737992 C10.7363158,3.72791505 10.0177328,3 9.13131581,3 C8.23871884,3 7.52631579,3.71517135 7.52631579,4.59737992 L7.52631579,6.80679155 L4.95438173,6.80679155 C4.06543023,6.80679155 3.34569185,7.52537453 3.34569185,8.41179157 C3.34569185,9.30438854 4.06592684,10.0167916 4.95438173,10.0167916 L7.52631579,10.0167916 L7.52631579,14.8067915 L4.95438173,14.8067915 C4.06543023,14.8067915 3.34569185,15.5253745 3.34569185,16.4117916 C3.34569185,17.3043885 4.06592684,18.0167916 4.95438173,18.0167916 L7.52631579,18.0167916 L7.52631579,19.4026201 C7.52631579,20.272085 8.24489877,21 9.13131581,21 C10.0239128,21 10.7363158,20.2848286 10.7363158,19.4026201 L10.7363158,18.0167916 L15.2631579,18.0167916 L15.2631579,19.4026201 C15.2631579,20.272085 15.9817409,21 16.8681579,21 C17.7607549,21 18.4731579,20.2848286 18.4731579,19.4026201 L18.4731579,18.0167916 L20.9936531,18.0167916 C21.8826046,18.0167916 22.602343,17.2982086 22.602343,16.4117916 C22.602343,15.5191946 21.882108,14.8067915 20.9936531,14.8067915 L18.4731579,14.8067915 L18.4731579,10.0167916 L20.9936531,10.0167916 C21.8826046,10.0167916 22.602343,9.2982086 22.602343,8.41179157 C22.602343,7.5191946 21.882108,6.80679155 20.9936531,6.80679155 L18.4731579,6.80679155 L18.4731579,4.59737992 C18.4731579,3.72791505 17.7545749,3 16.8681579,3 C15.9755609,3 15.2631579,3.71517135 15.2631579,4.59737992 L15.2631579,6.80679155 Z M15.2631579,10.0167916 L10.7363158,10.0167916 L10.7363158,14.8067915 L15.2631579,14.8067915 L15.2631579,10.0167916 Z" id="Combined-Shape" transform="translate(12.974017, 12.000000) rotate(-22.000000) translate(-12.974017, -12.000000) "></path>
                </g>
            </g>
        </g>
    </g>
</svg>