<?xml version="1.0" encoding="UTF-8" standalone="no"?>
<svg width="18px" height="15px" viewBox="0 0 18 15" version="1.1" xmlns="http://www.w3.org/2000/svg" xmlns:xlink="http://www.w3.org/1999/xlink">
    <!-- Generator: Sketch 3.8.3 (29802) - http://www.bohemiancoding.com/sketch -->
    <title>Combined Shape</title>
    <desc>Created with Sketch.</desc>
    <defs></defs>
    <g id="Page-1" stroke="none" stroke-width="1" fill="none" fill-rule="evenodd">
        <g id="price-tag" fill="#FFFFFF">
            <path d="M15.926,1.536 L15.358,0.722 C15.167,0.449 14.74,0.222 14.408,0.218 L11.22,0.232 C10.888,0.226 10.395,0.378 10.123,0.57 L0.729,7.157 C0.274,7.477 0.164,8.104 0.482,8.561 L4.751,14.669 C5.071,15.124 5.582,15.069 6.038,14.751 L15.432,8.163 C15.702,7.972 16.014,7.56 16.124,7.245 L17.122,4.1 C17.232,3.786 17.165,3.307 16.974,3.034 C16.974,3.034 15.9673872,1.7270329 16.2976936,2.13251645 C16.3435061,2.18875579 15.926,1.536 15.926,1.536 Z M13.5,5 C14.3284271,5 15,4.32842712 15,3.5 C15,2.67157288 14.3284271,2 13.5,2 C12.6715729,2 12,2.67157288 12,3.5 C12,4.32842712 12.6715729,5 13.5,5 Z" id="Combined-Shape"></path>
        </g>
    </g>
</svg>