<?xml version="1.0" encoding="UTF-8" standalone="no"?>
<svg width="498px" height="599px" viewBox="0 0 498 599" version="1.1" xmlns="http://www.w3.org/2000/svg" xmlns:xlink="http://www.w3.org/1999/xlink">
    <!-- Generator: Sketch 3.8.3 (29802) - http://www.bohemiancoding.com/sketch -->
    <title>scr</title>
    <desc>Created with Sketch.</desc>
    <defs></defs>
    <g id="Page-1" stroke="none" stroke-width="1" fill="none" fill-rule="evenodd">
        <g id="Artboard-1" transform="translate(-146.000000, -198.000000)">
            <g id="scr" transform="translate(127.000000, 180.000000)">
                <g id="Group">
                    <path d="M2,0 L541,0 L541,640 L1,640 L1,3 C0.914,1.581 0.835,0.168 2,0 L2,0 Z M513,151 C510.673,131.838 499.343,114.181 493,101 C489.027,92.744 484.851,85.424 481,76 C472.204,70.438 467.771,60.572 460,54 C443.354,39.921 420.893,28.47 396,23 C389.354,21.54 380.15,23.555 374,19 C372.29,20.623 370.36,22.027 367,22 C336.96,12.931 301.948,21.342 280,34 C278.859,33.112 280.618,31.208 276,32 C222.976,48.31 192.418,87.085 184,148 C168.811,176.273 154.692,213.904 114,216 C91.798,217.144 67.296,204.629 51,194 C44.248,177.419 38.143,160.19 35,140 C21.43,153.994 17.744,179.502 21,204 C23.509,222.875 25.294,246.208 30,263 C39.309,296.214 59.152,319.484 75,342 C92.976,353.691 104.096,372.237 130,376 C160.769,373.228 195.877,368.628 220,354 C251.778,382.32 288.512,413.245 341,417 C400.246,421.238 447.239,386.568 475,356 C482.6,347.632 489.818,338.083 495,329 C469.195,285.34 425.203,254.977 356,258 C366.037,235.037 389.611,225.612 419,222 C438.111,212.802 468.528,207.381 493,214 C500.542,216.04 507.342,222.977 517,220 C507.759,199.33 515.797,174.029 513,151 L513,151 Z M249,442 C248.854,454.619 279.863,466.14 260,477 C255.816,476.184 257.678,469.322 255,467 C251.927,467.261 250.503,469.17 248,470 C250.048,494.1 279.158,484.062 274,462 C271.926,453.127 264.123,452.142 259,447 C257.147,444.854 258.325,439.675 258,436 C260.928,436.261 261.072,433.739 264,434 C267.547,434.453 266.627,439.373 270,440 C271.313,438.98 273.687,439.02 275,438 C269.306,421.738 249.146,429.406 249,442 L249,442 Z M434,483 L441,483 C443.245,475.245 441.398,463.398 442,454 C447.247,452.914 455.763,455.096 456,449 C453.521,444.397 445.709,448.523 441,448 C440.388,444.27 438.433,437.07 442,435 C447.165,433.832 457.106,437.439 459,433 L459,430 C452.324,427.676 441.34,429.66 433,429 C434.188,446.146 434.103,464.564 434,483 L434,483 Z M315,431 C310.177,446.069 314.445,466.903 315,483 C321.554,481.554 334.217,486.217 336,480 C334.594,476.073 326.517,478.816 322,478 C321.524,472.556 319.855,463.824 321,460 C324.182,460.168 328.362,462.344 331,460 C332.448,452.552 321.825,457.175 320,453 C321.589,448.176 320.805,443.035 320,438 C324.603,436.603 330.472,436.472 336,436 C337.381,424.624 323.131,433.748 315,431 L315,431 Z M374,483 C381.778,480.899 393.121,489.675 395,481 C394.204,475.796 384.869,479.131 382,476 C381.128,460.74 385.053,445.127 382,431 L375,431 C375.716,449.383 373.93,465.263 374,483 L374,483 Z M246,548 C250.837,550.216 260.4,551.176 265,548 C266.729,545.729 267.413,542.413 267,538 C258.738,535.405 260.997,543.33 256,544 C246.314,537.493 252.61,511.269 255,501 C261.534,499.956 262.717,506.78 261,511 L269,511 C269.73,503.937 267.075,500.258 265,496 C236.178,486.292 242.813,531.787 246,548 L246,548 Z M317,495 C315.076,513.989 318.254,528.693 315,549 L322,549 C325.29,541.957 322.609,528.943 325,521 C328.446,531.22 331.594,541.74 338,549 L344,549 C343.857,529.191 347.011,512.678 349,495 L342,495 C339.151,506.818 338.962,521.296 337,534 C330.688,521.646 328.896,504.771 320,495 L317,495 L317,495 Z M362,496 C358.992,494.992 360.228,498.228 360,500 C361.962,502.705 369.943,499.39 372,502 C372.66,518.66 370.288,532.288 371,549 L380,549 C378.202,533.332 380.374,514.679 380,501 C382.768,500.102 389.388,503.055 389,499 L389,496 C381.045,493.278 368.178,496.567 362,496 L362,496 Z M402,495 C400.848,510.488 402.623,534.144 401,548 C407.948,549.479 420.787,549.475 425,547 L425,544 C421.965,541.035 412.035,544.965 409,542 C408.141,537.537 409.217,527.081 411,522 L425,522 C425.022,519.645 423.277,519.056 424,516 L409,516 C409.435,511.198 408.378,502.667 409,501 C414.939,500.606 422.594,501.928 425,498 C422.463,491.87 409.285,496.382 402,495 L402,495 Z M437,550 L445,550 C446.082,542.675 443.001,531.963 446,529 C454.77,530.564 454.575,541.092 456,550 C458.881,549.881 462.546,550.546 464,549 C462.254,540.079 460.587,531.08 455,526 C471.562,518.025 461.979,486.785 438,495 C437.49,510.164 436.141,533.467 437,550 L437,550 Z M281,497 C281.33,515.003 279.644,535.023 284,549 C290.308,547.641 302.729,552.396 303,545 C300.962,542.705 294.695,544.638 291,544 C287.58,540.42 289.947,531.053 288,526 C293.183,525.229 299.067,529.948 298,522 C296.583,519.084 288.069,523.264 288,519 C290.362,513.136 286.633,507.114 289,502 C294.821,501.155 304.991,504.657 304,497 C297.471,494.159 288.246,497.229 281,497 L281,497 Z M324,561 C296.941,552.778 302.538,600.472 309,614 C320.413,618.397 331.452,610.331 327,599 L322,599 C319.711,602.044 321.429,609.096 316,609 C309.893,599.756 310.767,575.501 317,567 C323.704,565.63 320.896,573.771 323,577 L329,577 C331.392,571.316 326.912,564.636 324,561 L324,561 Z M406,560 C405.507,580.015 407.36,596.202 405,614 C411.309,613.975 418.062,614.396 423,613 C436.77,601.953 438.447,551.594 406,560 L406,560 Z M439,571 C437.377,585.55 451.646,585.015 455,593 C457.669,599.357 456.115,609.491 449,608 C445.091,606.909 447.909,599.091 444,598 C442.666,599.666 439.553,599.553 438,601 C438.18,608.913 441.486,613.931 445,615 C458.003,618.956 465.263,607.05 464,596 C462.245,580.641 434.792,575.453 453,565 C456.922,565.745 455.693,571.64 461,571 C461.15,569.15 464.387,570.386 465,569 C458.812,552.35 440.121,560.95 439,571 L439,571 Z M243,562 C243.724,581.155 243.295,601.957 244,616 C247.22,616.22 248.231,614.231 252,615 C252.736,608.243 250.907,598.787 252,595 L257,595 C258.255,602.078 261.354,607.312 262,615 L271,615 C268.291,607.709 265.299,600.701 263,593 C271.985,590.421 270.436,568.443 265,563 C257.558,561.793 250.678,560.463 243,562 L243,562 Z M277,563 C277.145,580.521 276.175,599.158 279,614 C285.598,613.438 293.725,616.496 299,612 C299.129,606.538 290.378,609.955 286,609 C284.117,604.549 283.754,598.579 284,592 C287.041,591.042 294.142,594.142 294,590 C295.432,583.568 286.219,587.781 284,585 C284.651,579.651 282.687,571.688 285,568 C290.915,567.581 298.99,569.323 300,564 C298.108,559.494 283.205,562.432 277,563 L277,563 Z M342,615 C348.414,618.179 355.932,615.173 362,611 C365.535,596.29 365.749,570.752 357,562 C330.237,548.18 331.535,609.813 342,615 L342,615 Z M372,562 L372,616 C375.291,615.958 376.979,614.312 381,615 C381.19,609.987 379.315,599.688 380,595 C390.136,594.864 387.442,607.558 390,615 L399,615 C396.863,607.471 393.038,601.629 392,593 C393.739,590.406 396.534,588.867 398,586 C397.553,577.114 397.668,567.666 393,563 C385.97,562.047 379.042,560.222 372,562 L372,562 Z" id="Shape"></path>
                    <path d="M517,220 C507.342,222.977 500.542,216.04 493,214 C468.528,207.381 438.111,212.802 419,222 C389.611,225.612 366.037,235.037 356,258 C425.203,254.977 469.195,285.34 495,329 C489.818,338.083 482.6,347.632 475,356 C447.239,386.568 400.246,421.238 341,417 C288.512,413.245 251.778,382.32 220,354 C195.877,368.628 160.769,373.228 130,376 C104.096,372.237 92.976,353.691 75,342 C59.152,319.484 39.309,296.214 30,263 C25.294,246.208 23.509,222.875 21,204 C17.744,179.502 21.43,153.994 35,140 C38.143,160.19 44.248,177.419 51,194 C67.296,204.629 91.798,217.144 114,216 C154.692,213.904 168.811,176.273 184,148 C192.418,87.085 222.976,48.31 276,32 C280.618,31.208 278.859,33.112 280,34 C301.948,21.342 336.96,12.931 367,22 C370.36,22.027 372.29,20.623 374,19 C380.15,23.555 389.354,21.54 396,23 C420.893,28.47 443.354,39.921 460,54 C467.771,60.572 472.204,70.438 481,76 C484.851,85.424 489.027,92.744 493,101 C499.343,114.181 510.673,131.838 513,151 C515.797,174.029 507.759,199.33 517,220 L517,220 Z M334,396 C345.229,397.648 356.854,394.213 368,397 C370.55,392.55 376.842,391.842 384,392 C387.421,389.087 389.398,384.731 395,384 C394.064,379.522 398.3,376.582 402,374 C405.108,363.113 407.121,354.181 411,346 C409.425,341.602 408.359,337.53 408,333 C405.398,300.231 386.852,272.179 349,281 C348.097,279.257 346.763,277.148 345,279 C344.225,284.909 336.982,289.626 339,295 C402.964,274.17 414.796,382.142 357,385 C327.858,386.441 305.401,363.531 308,335 C303.862,338.22 299.718,335.836 294,338 C292.254,363.478 310.139,392.498 334,396 L334,396 Z M465,324 C458.491,297.497 433.34,284.343 408,280 C416.733,293.067 424.65,310.541 426,330 C427.481,351.363 418.595,370.533 414,386 C439.735,374.068 458.573,355.24 465,324 L465,324 Z M367,313 C362.085,309.738 352.671,310.167 351,317 C352.513,320.487 354.856,323.144 359,324 C361.799,320.465 368.546,320.879 367,313 L367,313 Z M242,346 C241.19,351.477 245.34,351.993 245,357 C259.754,367.579 269.879,382.788 289,389 C286.39,375.607 277.872,354.219 276,339 C263.083,339.749 251.671,342.004 242,346 L242,346 Z" id="Shape" fill="#000000"></path>
                    <path d="M294,338 C299.718,335.836 303.862,338.22 308,335 C305.401,363.531 327.858,386.441 357,385 C414.796,382.142 402.964,274.17 339,295 C336.982,289.626 344.225,284.909 345,279 C346.763,277.148 348.097,279.257 349,281 C386.852,272.179 405.398,300.231 408,333 C408.359,337.53 409.425,341.602 411,346 C407.121,354.181 405.108,363.113 402,374 C398.3,376.582 394.064,379.522 395,384 C389.398,384.731 387.421,389.087 384,392 C376.842,391.842 370.55,392.55 368,397 C356.854,394.213 345.229,397.648 334,396 C310.139,392.498 292.254,363.478 294,338 L294,338 Z" id="Shape"></path>
                    <path d="M414,386 C418.595,370.533 427.481,351.363 426,330 C424.65,310.541 416.733,293.067 408,280 C433.34,284.343 458.491,297.497 465,324 C458.573,355.24 439.735,374.068 414,386 L414,386 Z" id="Shape"></path>
                    <path d="M359,324 C354.856,323.144 352.513,320.487 351,317 C352.671,310.167 362.085,309.738 367,313 C368.546,320.879 361.799,320.465 359,324 L359,324 Z" id="Shape" fill="#FFFFFF"></path>
                    <path d="M276,339 C277.872,354.219 286.39,375.607 289,389 C269.879,382.788 259.754,367.579 245,357 C245.34,351.993 241.19,351.477 242,346 C251.671,342.004 263.083,339.749 276,339 L276,339 Z" id="Shape"></path>
                    <path d="M275,438 C273.687,439.02 271.313,438.98 270,440 C266.627,439.373 267.547,434.453 264,434 C261.072,433.739 260.928,436.261 258,436 C258.325,439.675 257.147,444.854 259,447 C264.123,452.142 271.926,453.127 274,462 C279.158,484.062 250.048,494.1 248,470 C250.503,469.17 251.927,467.261 255,467 C257.678,469.322 255.816,476.184 260,477 C279.863,466.14 248.854,454.619 249,442 C249.146,429.406 269.306,421.738 275,438 L275,438 Z" id="Shape" fill="#000000"></path>
                    <path d="M433,429 C441.34,429.66 452.324,427.676 459,430 L459,433 C457.106,437.439 447.165,433.832 442,435 C438.433,437.07 440.388,444.27 441,448 C445.709,448.523 453.521,444.397 456,449 C455.763,455.096 447.247,452.914 442,454 C441.398,463.398 443.245,475.245 441,483 L434,483 C434.103,464.564 434.188,446.146 433,429 L433,429 Z" id="Shape" fill="#000000"></path>
                    <path d="M336,436 C330.472,436.472 324.603,436.603 320,438 C320.805,443.035 321.589,448.176 320,453 C321.825,457.175 332.448,452.552 331,460 C328.362,462.344 324.182,460.168 321,460 C319.855,463.824 321.524,472.556 322,478 C326.517,478.816 334.594,476.073 336,480 C334.217,486.217 321.554,481.554 315,483 C314.445,466.903 310.177,446.069 315,431 C323.131,433.748 337.381,424.624 336,436 L336,436 Z" id="Shape" fill="#000000"></path>
                    <path d="M375,431 L382,431 C385.053,445.127 381.128,460.74 382,476 C384.869,479.131 394.204,475.796 395,481 C393.121,489.675 381.778,480.899 374,483 C373.93,465.263 375.716,449.383 375,431 L375,431 Z" id="Shape" fill="#000000"></path>
                    <path d="M265,496 C267.075,500.258 269.73,503.937 269,511 L261,511 C262.717,506.78 261.534,499.956 255,501 C252.61,511.269 246.314,537.493 256,544 C260.997,543.33 258.738,535.405 267,538 C267.413,542.413 266.729,545.729 265,548 C260.4,551.176 250.837,550.216 246,548 C242.813,531.787 236.178,486.292 265,496 L265,496 Z" id="Shape" fill="#000000"></path>
                    <path d="M389,496 L389,499 C389.388,503.055 382.768,500.102 380,501 C380.374,514.679 378.202,533.332 380,549 L371,549 C370.288,532.288 372.66,518.66 372,502 C369.943,499.39 361.962,502.705 360,500 C360.228,498.228 358.992,494.992 362,496 C368.178,496.567 381.045,493.278 389,496 L389,496 Z" id="Shape" fill="#000000"></path>
                    <path d="M425,498 C422.594,501.928 414.939,500.606 409,501 C408.378,502.667 409.435,511.198 409,516 L424,516 C423.277,519.056 425.022,519.645 425,522 L411,522 C409.217,527.081 408.141,537.537 409,542 C412.035,544.965 421.965,541.035 425,544 L425,547 C420.787,549.475 407.948,549.479 401,548 C402.623,534.144 400.848,510.488 402,495 C409.285,496.382 422.463,491.87 425,498 L425,498 Z" id="Shape" fill="#000000"></path>
                    <path d="M438,495 C461.979,486.785 471.562,518.025 455,526 C460.587,531.08 462.254,540.079 464,549 C462.546,550.546 458.881,549.881 456,550 C454.575,541.092 454.77,530.564 446,529 C443.001,531.963 446.082,542.675 445,550 L437,550 C436.141,533.467 437.49,510.164 438,495 L438,495 Z M445,523 C457.082,524.719 458.339,509.026 453,502 C450.605,501.396 448.438,500.562 445,501 C444.974,510.495 444.617,514.122 445,523 L445,523 Z" id="Shape" fill="#000000"></path>
                    <path d="M304,497 C304.991,504.657 294.821,501.155 289,502 C286.633,507.114 290.362,513.136 288,519 C288.069,523.264 296.583,519.084 298,522 C299.067,529.948 293.183,525.229 288,526 C289.947,531.053 287.58,540.42 291,544 C294.695,544.638 300.962,542.705 303,545 C302.729,552.396 290.308,547.641 284,549 C279.644,535.023 281.33,515.003 281,497 C288.246,497.229 297.471,494.159 304,497 L304,497 Z" id="Shape" fill="#000000"></path>
                    <path d="M445,501 C448.438,500.562 450.605,501.396 453,502 C458.339,509.026 457.082,524.719 445,523 C444.617,514.122 444.974,510.495 445,501 L445,501 Z" id="Shape"></path>
                    <path d="M329,577 L323,577 C320.896,573.771 323.704,565.63 317,567 C310.767,575.501 309.893,599.756 316,609 C321.429,609.096 319.711,602.044 322,599 L327,599 C331.452,610.331 320.413,618.397 309,614 C302.538,600.472 296.941,552.778 324,561 C326.912,564.636 331.392,571.316 329,577 L329,577 Z" id="Shape" fill="#000000"></path>
                    <path d="M423,613 C418.062,614.396 411.309,613.975 405,614 C407.36,596.202 405.507,580.015 406,560 C438.447,551.594 436.77,601.953 423,613 L423,613 Z M414,608 C431.503,607.43 425.853,570.343 416,565 L414,565 C413.278,577.312 414.45,593.003 414,608 L414,608 Z" id="Shape" fill="#000000"></path>
                    <path d="M465,569 C464.387,570.386 461.15,569.15 461,571 C455.693,571.64 456.922,565.745 453,565 C434.792,575.453 462.245,580.641 464,596 C465.263,607.05 458.003,618.956 445,615 C441.486,613.931 438.18,608.913 438,601 C439.553,599.553 442.666,599.666 444,598 C447.909,599.091 445.091,606.909 449,608 C456.115,609.491 457.669,599.357 455,593 C451.646,585.015 437.377,585.55 439,571 C440.121,560.95 458.812,552.35 465,569 L465,569 Z" id="Shape" fill="#000000"></path>
                    <path d="M265,563 C270.436,568.443 271.985,590.421 263,593 C265.299,600.701 268.291,607.709 271,615 L262,615 C261.354,607.312 258.255,602.078 257,595 L252,595 C250.907,598.787 252.736,608.243 252,615 C248.231,614.231 247.22,616.22 244,616 C243.295,601.957 243.724,581.155 243,562 C250.678,560.463 257.558,561.793 265,563 L265,563 Z M253,588 C255.881,587.881 259.546,588.546 261,587 C262.928,582.087 262.466,571.766 260,568 C247.753,559.408 251.926,579.81 253,588 L253,588 Z" id="Shape" fill="#000000"></path>
                    <path d="M300,564 C298.99,569.323 290.915,567.581 285,568 C282.687,571.688 284.651,579.651 284,585 C286.219,587.781 295.432,583.568 294,590 C294.142,594.142 287.041,591.042 284,592 C283.754,598.579 284.117,604.549 286,609 C290.378,609.955 299.129,606.538 299,612 C293.725,616.496 285.598,613.438 279,614 C276.175,599.158 277.145,580.521 277,563 C283.205,562.432 298.108,559.494 300,564 L300,564 Z" id="Shape" fill="#000000"></path>
                    <path d="M357,562 C365.749,570.752 365.535,596.29 362,611 C355.932,615.173 348.414,618.179 342,615 C331.535,609.813 330.237,548.18 357,562 L357,562 Z M354,609 C359.19,598.551 358.782,572.898 350,567 C340.984,571.005 336.441,614.336 354,609 L354,609 Z" id="Shape" fill="#000000"></path>
                    <path d="M393,563 C397.668,567.666 397.553,577.114 398,586 C396.534,588.867 393.739,590.406 392,593 C393.038,601.629 396.863,607.471 399,615 L390,615 C387.442,607.558 390.136,594.864 380,595 C379.315,599.688 381.19,609.987 381,615 C376.979,614.312 375.291,615.958 372,616 L372,562 C379.042,560.222 385.97,562.047 393,563 L393,563 Z M380,587 C381.821,588.527 388.179,588.527 390,587 C390.128,579.538 390.387,571.946 388,567 C374.584,561.562 381.621,576.892 380,587 L380,587 Z" id="Shape" fill="#000000"></path>
                    <path d="M414,565 L416,565 C425.853,570.343 431.503,607.43 414,608 C414.45,593.003 413.278,577.312 414,565 L414,565 Z" id="Shape"></path>
                    <path d="M260,568 C262.466,571.766 262.928,582.087 261,587 C259.546,588.546 255.881,587.881 253,588 C251.926,579.81 247.753,559.408 260,568 L260,568 Z" id="Shape"></path>
                    <path d="M388,567 C390.387,571.946 390.128,579.538 390,587 C388.179,588.527 381.821,588.527 380,587 C381.621,576.892 374.584,561.562 388,567 L388,567 Z" id="Shape"></path>
                    <path d="M350,567 C358.782,572.898 359.19,598.551 354,609 C336.441,614.336 340.984,571.005 350,567 L350,567 Z" id="Shape"></path>
                    <path d="M320,495 C328.896,504.771 330.688,521.646 337,534 C338.962,521.296 339.151,506.818 342,495 L349,495 C347.011,512.678 343.857,529.191 344,549 L338,549 C331.594,541.74 328.446,531.22 325,521 C322.609,528.943 325.29,541.957 322,549 L315,549 C318.254,528.693 315.076,513.989 317,495 L320,495 L320,495 Z" id="Shape" fill="#000000"></path>
                </g>
            </g>
        </g>
    </g>
</svg>