<?xml version="1.0" encoding="UTF-8" standalone="no"?>
<svg width="163px" height="163px" viewBox="0 0 163 163" version="1.1" xmlns="http://www.w3.org/2000/svg" xmlns:xlink="http://www.w3.org/1999/xlink">
    <!-- Generator: Sketch 3.8.3 (29802) - http://www.bohemiancoding.com/sketch -->
    <title>o</title>
    <desc>Created with Sketch.</desc>
    <defs>
        <filter x="-50%" y="-50%" width="200%" height="200%" filterUnits="objectBoundingBox" id="filter-1">
            <feGaussianBlur stdDeviation="5.44411519 2.11948758" in="SourceGraphic"></feGaussianBlur>
        </filter>
        <filter x="-50%" y="-50%" width="200%" height="200%" filterUnits="objectBoundingBox" id="filter-2">
            <feGaussianBlur stdDeviation="4.45889203 -0.99513252" in="SourceGraphic"></feGaussianBlur>
        </filter>
        <filter x="-50%" y="-50%" width="200%" height="200%" filterUnits="objectBoundingBox" id="filter-3">
            <feGaussianBlur stdDeviation="2.5595883 -3.30210421" in="SourceGraphic"></feGaussianBlur>
        </filter>
        <filter x="-50%" y="-50%" width="200%" height="200%" filterUnits="objectBoundingBox" id="filter-4">
            <feGaussianBlur stdDeviation="1.34133732" in="SourceGraphic"></feGaussianBlur>
        </filter>
        <filter x="-50%" y="-50%" width="200%" height="200%" filterUnits="objectBoundingBox" id="filter-5">
            <feGaussianBlur stdDeviation="5.18152574" in="SourceGraphic"></feGaussianBlur>
        </filter>
    </defs>
    <g id="Page-1" stroke="none" stroke-width="1" fill="none" fill-rule="evenodd">
        <g id="o">
            <g id="play-button">
                <g id="hoops" transform="translate(2.174414, 2.106933)">
                    <path d="M78.1985339,154.800325 C119.824237,154.800325 153.568537,120.829334 153.568537,78.9239926 C153.568537,37.0186514 119.824237,3.04766038 78.1985339,3.04766038 C36.5728308,3.04766038 2.82853115,37.0186514 2.82853115,78.9239926 C2.82853115,120.829334 36.5728308,154.800325 78.1985339,154.800325 Z M78.294999,147.752106 C116.96662,147.752106 148.316163,116.19196 148.316163,77.2605459 C148.316163,38.3291322 116.96662,6.76898568 78.294999,6.76898568 C39.623378,6.76898568 8.27383512,38.3291322 8.27383512,77.2605459 C8.27383512,116.19196 39.623378,147.752106 78.294999,147.752106 Z" id="indicator-1" fill-opacity="0.756538723" fill="#3BF33A" filter="url(#filter-1)"></path>
                    <path d="M79.7035312,155.823095 C122.160421,155.823095 156.578531,121.173767 156.578531,78.4316546 C156.578531,35.6895426 122.160421,1.04021473 79.7035312,1.04021473 C37.246641,1.04021473 2.82853115,35.6895426 2.82853115,78.4316546 C2.82853115,121.173767 37.246641,155.823095 79.7035312,155.823095 Z M81.3025658,151.655585 C121.575169,151.655585 154.222564,118.788868 154.222564,78.2457166 C154.222564,37.7025656 121.575169,4.8358479 81.3025658,4.8358479 C41.0299628,4.8358479 8.3825676,37.7025656 8.3825676,78.2457166 C8.3825676,118.788868 41.0299628,151.655585 81.3025658,151.655585 Z" id="indicator-2" fill-opacity="0.702219203" fill="#D0011B" filter="url(#filter-2)"></path>
                    <path d="M80.2074634,159.864601 C124.043152,159.864601 159.579,124.090027 159.579,79.9598537 C159.579,35.8296801 124.043152,0.0551060326 80.2074634,0.0551060326 C36.3717743,0.0551060326 0.835927118,35.8296801 0.835927118,79.9598537 C0.835927118,124.090027 36.3717743,159.864601 80.2074634,159.864601 Z M80.8103303,153.451475 C121.811949,153.451475 155.050328,119.989804 155.050328,78.7127394 C155.050328,37.4356753 121.811949,3.97400341 80.8103303,3.97400341 C39.8087116,3.97400341 6.57033239,37.4356753 6.57033239,78.7127394 C6.57033239,119.989804 39.8087116,153.451475 80.8103303,153.451475 Z" id="indicator-3" fill-opacity="0.75464221" fill="#C234C0" filter="url(#filter-3)"></path>
                    <path d="M79.6621249,157.679532 C122.600269,157.679532 157.408512,122.63745 157.408512,79.4108517 C157.408512,36.184253 122.600269,1.14217104 79.6621249,1.14217104 C36.7239811,1.14217104 1.91573805,36.184253 1.91573805,79.4108517 C1.91573805,122.63745 36.7239811,157.679532 79.6621249,157.679532 Z M79.7616315,150.409086 C119.652552,150.409086 151.990533,117.853862 151.990533,77.6949573 C151.990533,37.5360527 119.652552,4.98082814 79.7616315,4.98082814 C39.8707108,4.98082814 7.53273013,37.5360527 7.53273013,77.6949573 C7.53273013,117.853862 39.8707108,150.409086 79.7616315,150.409086 Z" id="indicator-4" fill-opacity="0.754670516" fill="#2EB2FD" filter="url(#filter-4)"></path>
                    <path d="M78.1607408,154.643156 C119.165124,154.643156 152.405744,120.728505 152.405744,78.8926635 C152.405744,37.0568217 119.165124,3.14217104 78.1607408,3.14217104 C37.156358,3.14217104 3.91573805,37.0568217 3.91573805,78.8926635 C3.91573805,120.728505 37.156358,154.643156 78.1607408,154.643156 Z M78.2547619,147.564023 C115.796317,147.564023 146.22976,116.513471 146.22976,78.2106739 C146.22976,39.9078767 115.796317,8.85732458 78.2547619,8.85732458 C40.7132069,8.85732458 10.2797634,39.9078767 10.2797634,78.2106739 C10.2797634,116.513471 40.7132069,147.564023 78.2547619,147.564023 Z" id="indicator-5" fill-opacity="0.754670516" fill="#F8FE00" filter="url(#filter-5)"></path>
                </g>
                <path d="M48,51.9905081 C48,49.7866113 49.6068853,48.7909108 51.5877736,49.7659064 L99.0932338,73.1481499 C101.074706,74.123433 104.266281,75.7615705 106.211136,76.8013234 L111.469871,79.6127329 C113.419507,80.6550417 113.402136,82.302796 111.420289,83.298512 L106.260718,85.8907746 C104.283699,86.8840654 101.074122,88.4918538 99.103787,89.475948 L51.5772204,113.213339 C49.6015761,114.200084 48,113.207912 48,111.009492 L48,51.9905081 Z" id="icon" fill-opacity="0.584295743" fill="#FFFFFF"></path>
            </g>
        </g>
    </g>
</svg>